<?xml version="1.0" encoding="UTF-8"?>
<svg version="1.1" xmlns="http://www.w3.org/2000/svg" width="256" height="256">
<path d="M0 0 C1.11063449 -0.00445668 1.11063449 -0.00445668 2.24370605 -0.0090034 C4.72000278 -0.01766162 7.19625099 -0.01919621 9.67256165 -0.02069092 C11.45015567 -0.02532117 13.2277487 -0.03034611 15.00534058 -0.03573608 C19.83200791 -0.04884304 24.65866135 -0.05530184 29.48534369 -0.05974674 C32.50313805 -0.0626805 35.52092863 -0.06678591 38.53872108 -0.07125092 C47.98725545 -0.08492199 57.43578116 -0.09459029 66.88432473 -0.09845281 C77.7788969 -0.10293131 88.67334348 -0.12047124 99.56787747 -0.1494534 C107.99694216 -0.17109576 116.42597157 -0.18115847 124.85506374 -0.18249393 C129.88557919 -0.18354021 134.91597651 -0.18941042 139.94646263 -0.20731354 C144.68167841 -0.22383816 149.41668782 -0.22592845 154.15192223 -0.21717453 C155.88445591 -0.21640648 157.6170009 -0.22071614 159.34950638 -0.23063278 C174.43103786 -0.311856 187.33329628 1.84793879 198.8651886 12.36309814 C210.36877094 24.45115811 212.1587709 37.67339413 212.07417297 53.65216064 C212.07960393 55.38813867 212.08673202 57.12411209 212.09541321 58.8600769 C212.11353383 63.54195749 212.10662593 68.22348259 212.09389687 72.9053688 C212.08371046 77.82447458 212.09317811 82.74355161 212.09944153 87.66265869 C212.10670159 95.92060768 212.09717343 104.17841317 212.07807922 112.43634033 C212.05631367 121.9590451 212.0633662 131.48140719 212.08538485 141.00410366 C212.10358574 149.20661808 212.10607431 157.40902985 212.09563017 165.61155796 C212.08942095 170.49895907 212.08848834 175.38619955 212.10177612 180.27359009 C212.11340252 184.87029288 212.10518599 189.46655747 212.0821991 194.06321335 C212.07694805 195.74168549 212.07836334 197.42019505 212.08724976 199.09865189 C212.15870016 213.97524941 209.69702358 225.71892697 199.55659485 237.14044189 C190.47050593 245.94363061 179.65595764 250.29670878 167.1131897 250.28088379 C166.3727667 250.28385491 165.63234371 250.28682603 164.86948365 250.28988719 C162.39318692 250.29854541 159.9169387 250.30008 157.44062805 250.30157471 C155.66303403 250.30620496 153.885441 250.3112299 152.10784912 250.31661987 C147.28118179 250.32972683 142.45452835 250.33618563 137.627846 250.34063053 C134.61005165 250.34356429 131.59226107 250.3476697 128.57446861 250.3521347 C119.12593425 250.36580578 109.67740854 250.37547408 100.22886497 250.3793366 C89.33429279 250.3838151 78.43984622 250.40135503 67.54531223 250.43033719 C59.11624754 250.45197955 50.68721813 250.46204226 42.25812596 250.46337771 C37.22761051 250.464424 32.19721318 250.47029421 27.16672707 250.48819733 C22.43151128 250.50472195 17.69650188 250.50681224 12.96126747 250.49805832 C11.22873378 250.49729027 9.4961888 250.50159993 7.76368332 250.51151657 C-7.31784817 250.59273979 -20.22010659 248.43294499 -31.7519989 237.91778564 C-43.25558124 225.82972568 -45.0455812 212.60748966 -44.96098328 196.62872314 C-44.96641423 194.89274512 -44.97354232 193.1567717 -44.98222351 191.42080688 C-45.00034413 186.7389263 -44.99343623 182.0574012 -44.98070717 177.37551498 C-44.97052076 172.45640921 -44.97998842 167.53733217 -44.98625183 162.6182251 C-44.9935119 154.36027611 -44.98398373 146.10247062 -44.96488953 137.84454346 C-44.94312397 128.32183869 -44.95017651 118.7994766 -44.97219515 109.27678013 C-44.99039604 101.07426571 -44.99288461 92.87185394 -44.98244047 84.66932583 C-44.97623126 79.78192472 -44.97529864 74.89468424 -44.98858643 70.0072937 C-45.00021283 65.41059091 -44.9919963 60.81432631 -44.9690094 56.21767044 C-44.96375835 54.5391983 -44.96517364 52.86068874 -44.97406006 51.1822319 C-45.04551046 36.30563438 -42.58383388 24.56195682 -32.44340515 13.14044189 C-23.35731623 4.33725318 -12.54276794 -0.01582499 0 0 Z M13.55659485 65.14044189 C13.55659485 101.77044189 13.55659485 138.40044189 13.55659485 176.14044189 C20.81659485 176.14044189 28.07659485 176.14044189 35.55659485 176.14044189 C35.55659485 164.26044189 35.55659485 152.38044189 35.55659485 140.14044189 C36.87659485 140.47044189 38.19659485 140.80044189 39.55659485 141.14044189 C53.85242983 142.18234173 70.34371453 140.20207301 81.77534485 130.90216064 C89.62807279 123.13553718 93.05877619 113.35881243 93.80659485 102.51544189 C93.57321367 91.39801122 89.69200363 82.04672753 81.67378235 74.32794189 C69.88223539 64.7801306 55.26096532 63.80223023 40.68159485 63.95294189 C39.50468079 63.95358643 38.32776672 63.95423096 37.1151886 63.95489502 C29.1734617 63.9942105 21.53269376 64.52689582 13.55659485 65.14044189 Z M112.21284485 100.22637939 C107.48744431 105.68733757 105.27266651 111.9064416 105.55659485 119.14044189 C106.70441438 126.22067608 110.17404228 131.48873132 115.55659485 136.14044189 C122.35648448 140.71411158 130.01537597 143.70519582 137.58784485 146.74591064 C140.24517348 147.99415581 141.80127341 148.83048764 143.55659485 151.14044189 C144.05659485 153.64044189 144.05659485 153.64044189 143.55659485 156.14044189 C137.94525679 160.36413859 132.28511498 159.80191375 125.55659485 159.14044189 C118.66891637 157.84455551 112.05854311 155.7412212 105.55659485 153.14044189 C105.55659485 159.74044189 105.55659485 166.34044189 105.55659485 173.14044189 C114.17219788 177.44824341 121.44400788 178.48787272 130.99409485 178.45294189 C132.3099054 178.47711182 132.3099054 178.47711182 133.65229797 178.50177002 C144.1573499 178.5095114 152.10347197 175.68471096 160.18159485 168.95294189 C165.33077051 162.85523388 167.28756429 156.75310096 166.93159485 148.77716064 C165.95191407 141.88878017 162.46114695 137.21772857 157.1542511 132.86309814 C152.21720664 129.58905814 146.78004583 127.31437357 141.36909485 124.94708252 C138.77066036 123.79066717 136.22519149 122.53724021 133.68159485 121.26544189 C132.50983704 120.68149658 132.50983704 120.68149658 131.31440735 120.08575439 C129.55659485 119.14044189 129.55659485 119.14044189 128.55659485 118.14044189 C128.30659485 115.20294189 128.30659485 115.20294189 128.55659485 112.14044189 C132.12181285 109.76362989 134.74175981 109.75764712 138.86909485 109.76544189 C139.57098938 109.76415283 140.27288391 109.76286377 140.99604797 109.76153564 C148.26171065 109.90515162 154.70150098 111.74115904 161.55659485 114.14044189 C162.75001237 113.16711928 162.75001237 113.16711928 162.67012024 111.37457275 C162.66488342 110.62570801 162.65964661 109.87684326 162.6542511 109.10528564 C162.65102844 108.29639893 162.64780579 107.48751221 162.64448547 106.65411377 C162.63610657 105.80397705 162.62772766 104.95384033 162.61909485 104.07794189 C162.61458313 103.22393799 162.61007141 102.36993408 162.60542297 101.49005127 C162.59359858 99.37348526 162.57566253 97.25695504 162.55659485 95.14044189 C147.70804796 87.19819589 124.58441597 88.31113672 112.21284485 100.22637939 Z " fill="#000000" transform="translate(44.44340515136719,2.85955810546875)"/>
<path d="M0 0 C24.63194444 0 24.63194444 0 29.89453125 4.6875 C33.95256627 9.24922555 35.16622909 12.14835711 35.25 18.3125 C35.27578125 19.44300781 35.3015625 20.57351562 35.328125 21.73828125 C34.81933842 26.79586215 32.80039215 29.23518084 29.1875 32.6875 C22.88170732 37.26229077 17.12477175 37.26300264 9.625 37.125 C6.44875 37.08375 3.2725 37.0425 0 37 C0 24.79 0 12.58 0 0 Z " fill="#000000" transform="translate(80,87)"/>
</svg>
